<?xml version="1.0" encoding="UTF-8"?>
<svg width="69px" height="38px" viewBox="0 0 69 38" version="1.1" xmlns="http://www.w3.org/2000/svg" xmlns:xlink="http://www.w3.org/1999/xlink">
    <!-- Generator: Sketch 40.2 (33826) - http://www.bohemiancoding.com/sketch -->
    <title>Combined Shape</title>
    <desc>Created with Sketch.</desc>
    <defs></defs>
    <g id="Page-1" stroke="none" stroke-width="1" fill="none" fill-rule="evenodd">
        <path d="M44.8480599,27.3163392 C44.0785624,27.2715435 43.3490559,27.0976177 42.6871188,26.818894 C37.818136,33.5258034 29.057841,38 19.0602254,38 C12.3686839,38 -5.1066544,32.5466612 1.44426086,32.6590222 C1.63491064,32.6622922 1.82603344,32.6639351 2.01761057,32.6639351 C10.2613654,32.6639351 17.6638424,29.6218431 22.7371012,24.79433 C22.33135,24.8666275 21.9206086,24.9285269 21.5052681,24.9796224 C11.3817652,26.225024 2.35957263,20.5803557 1.35363693,12.3719027 C1.17368482,10.9034904 1.26245713,9.45250581 1.58752327,8.05257579 C0.743552804,5.58748541 0.265236576,2.86333681 0.234953763,0 C0.234953763,0 18.057517,5.60387202 29.0839265,11.1397221 C32.4253913,12.817317 35.0655978,18.7987688 35.6174143,19 C37.3145563,19.6188978 41.4307266,17.4167857 42.6871188,16.9733836 C42.726823,16.9593713 42.7652208,16.9458614 42.8023939,16.9328326 C43.5995718,16.551469 44.5020275,16.3364486 45.4579439,16.3364486 C48.4682291,16.3364486 50.94835,18.4687817 51.2800595,21.2132764 L67.4260651,15.9649557 L68.0299838,27.488412 L50.9159091,23.8485333 C50.0619325,25.8959371 47.940178,27.3457944 45.4579439,27.3457944 C45.251995,27.3457944 45.0485276,27.3358137 44.8480599,27.3163392 L44.8480599,27.3163392 Z" id="Combined-Shape" fill="#000000"></path>
    </g>
</svg>